<svg width="300" height="300" viewBox="0 0 300 300" fill="none" xmlns="http://www.w3.org/2000/svg">
<g clip-path="url(#clip0)">
<path d="M151.868 300C233.679 300 300 233.679 300 151.868C300 70.0575 233.679 3.73669 151.868 3.73669C70.0572 3.73669 3.73639 70.0575 3.73639 151.868C3.73639 233.679 70.0572 300 151.868 300Z" fill="#2C2C2C"/>
<path d="M214.042 224.253C212.796 224.253 212.173 224.046 212.173 223.63C212.173 222.937 213.281 221.656 215.498 219.786C217.707 217.919 219.79 215.907 221.731 213.762C223.668 211.613 224.638 209.293 224.639 206.802V206.386L222.147 206.593C218.952 206.593 216.735 205.486 215.498 203.271C214.526 201.747 214.04 199.877 214.042 197.661C214.068 194.609 214.739 191.597 216.01 188.822C217.281 186.047 219.124 183.572 221.418 181.559C224.812 178.442 228.863 176.883 233.572 176.883C241.467 176.883 245.415 180.969 245.415 189.142C245.415 190.528 245.138 192.779 244.585 195.895C244.032 199.011 242.3 202.889 239.391 207.529C236.508 212.146 232.77 216.17 228.378 219.385C223.946 222.63 219.168 224.253 214.042 224.253ZM249.156 130.97H248.323C240.564 130.97 235.716 129.1 233.781 125.36C232.515 123.073 231.87 120.494 231.909 117.881C231.923 115.981 232.202 114.093 232.739 112.271C233.652 107.8 235.946 103.73 239.298 100.634C242.681 97.4489 247.629 95.8564 254.14 95.8564C260.373 95.9976 264.113 98.0754 265.36 102.09C265.917 104.05 266.197 106.078 266.193 108.116C266.178 110.712 265.829 113.295 265.154 115.802C264.261 119.666 262.402 123.241 259.75 126.19C257.12 129.099 253.589 130.693 249.156 130.97V130.97Z" fill="black"/>
<path d="M192.696 115.946C189.313 120.456 185.424 127.417 181.03 136.83C176.635 146.242 172.52 156.135 168.684 166.507C164.882 176.798 162.245 185.698 160.774 193.209C158.365 194.944 156.157 195.814 154.149 195.819C152.005 195.819 150.934 193.959 150.936 190.239C150.936 188.435 151.217 186.124 151.781 183.305C153.244 175.756 155.893 166.793 159.729 156.417C163.565 146.041 167.68 136.149 172.075 126.74C175.223 119.998 178.112 114.513 180.742 110.285C185.044 111.413 189.098 113.332 192.696 115.946V115.946Z" fill="black"/>
<path d="M132.64 100.46C105.649 147.803 99.6779 180.459 97.9777 191.046C95.2484 194.225 92.8898 195.816 90.902 195.819C88.9849 195.819 88.0272 193.847 88.0289 189.901C88.0669 187.575 88.2929 185.256 88.7049 182.967C89.9056 175.432 94.3882 143.363 121.024 95.1171C125.159 96.259 129.082 98.0633 132.64 100.46V100.46Z" fill="black"/>
<path d="M200.645 162.618C199.742 171.867 196.613 181.225 191.259 190.691C185.904 200.157 179.563 207.992 172.236 214.196C164.906 220.396 157.916 223.497 151.266 223.497H150.59C140.788 222.488 134.251 218.095 130.98 210.319C133.952 211.948 137.503 212.978 141.635 213.406H142.311C148.45 213.406 154.874 210.766 161.586 205.486C162.037 205.774 162.564 205.921 163.1 205.909C169.297 205.909 177.413 197.624 187.45 181.052C192.522 172.824 196.13 166.51 198.274 162.111C198.837 161.211 199.288 160.76 199.626 160.759C200.305 160.759 200.645 161.378 200.645 162.618Z" fill="black"/>
<path d="M120.396 195.658C117.184 201.153 113.51 206.365 109.413 211.237C102.481 219.41 95.2379 223.496 87.6838 223.496C78.0982 222.596 72.4805 217.871 68.066 210.813C67.8138 210.427 67.5943 210.034 67.3698 209.633C70.4473 211.651 74.1302 212.975 78.7212 213.416C85.2479 213.416 91.5458 210.362 97.615 204.252C98.0918 205.359 98.8334 205.919 99.85 205.919C104.222 205.919 110.392 198.225 118.36 182.836C118.519 187.176 119.202 191.482 120.396 195.658V195.658Z" fill="black"/>
<path d="M191.691 152.528C190.788 161.777 187.659 171.135 182.304 180.601C176.95 190.067 170.609 197.902 163.282 204.106C162.715 204.585 162.15 205.045 161.587 205.486C154.875 210.766 148.45 213.407 142.312 213.407H141.636C137.503 212.979 133.951 211.95 130.981 210.319C126.899 208.084 123.912 204.721 122.018 200.229C121.391 198.742 120.85 197.22 120.396 195.671C119.208 191.49 118.53 187.182 118.378 182.839C118.333 181.829 118.31 180.805 118.31 179.766C118.317 176.941 118.485 174.119 118.815 171.313C113.507 183.029 107.388 192.974 100.458 201.147C99.5198 202.254 98.5747 203.285 97.6229 204.242C91.557 210.352 85.2591 213.407 78.7291 213.407C74.1305 212.975 70.4476 211.661 67.3777 209.623C64.0404 207.423 61.417 204.386 59.1189 200.713C43.4792 175.715 67.7712 124.061 75.3514 108.03C76.0855 106.474 76.6657 105.255 77.034 104.423C78.2675 101.9 73.0257 99.7008 65.4908 97.6929C57.8753 95.6774 47.929 93.8384 39.9451 92.0727C44.4857 89.5501 88.2517 79.46 110.157 84.5379C114.991 85.6295 119.58 87.6068 123.693 90.37C122.782 91.9692 121.895 93.5517 121.032 95.1174C94.389 143.368 89.9065 175.432 88.7057 182.967C88.2938 185.257 88.0677 187.576 88.0297 189.902C88.0297 193.85 88.9874 195.823 90.9029 195.819C92.8906 195.819 95.2492 194.229 97.9786 191.047C105.166 182.68 114.927 163.302 127.26 132.913C128.839 128.853 130.023 125.978 130.812 124.288C132.842 118.765 134.928 113.523 137.07 108.56C140.676 101.687 147.778 98.2487 158.376 98.2453C161.53 98.2453 165.533 98.7809 170.383 99.8522C175.206 100.91 179.757 102.954 183.752 105.856C182.794 107.136 181.794 108.612 180.753 110.285C178.125 114.513 175.235 119.998 172.086 126.74C167.69 136.157 163.575 146.05 159.74 156.417C155.906 166.785 153.253 175.748 151.782 183.305C151.218 186.125 150.937 188.437 150.937 190.24C150.937 193.961 152.008 195.821 154.15 195.819C156.157 195.819 158.365 194.949 160.775 193.209C165.808 189.581 171.716 182.166 178.5 170.962C183.572 162.734 187.18 156.42 189.325 152.021C189.888 151.121 190.339 150.67 190.677 150.669C191.353 150.669 191.691 151.288 191.691 152.528Z" fill="#FAFAFA"/>
<path d="M149.997 0C67.1549 0 0 67.1574 0 150C0 232.843 67.1549 300 149.997 300C232.84 300 299.998 232.843 299.998 150C299.998 67.1574 232.84 0 149.997 0ZM149.997 294.208C70.3535 294.208 5.78922 229.631 5.78922 150C5.78922 70.3686 70.3535 5.80183 149.997 5.80183C229.641 5.80183 294.857 70.356 294.857 150C294.857 229.644 229.639 294.208 149.997 294.208Z" fill="black"/>
<path d="M204.204 214.163C202.958 214.163 202.335 213.955 202.335 213.54C202.335 212.847 203.443 211.566 205.66 209.696C207.87 207.829 209.952 205.817 211.893 203.672C213.83 201.523 214.8 199.203 214.802 196.712V196.296L212.309 196.503C209.114 196.503 206.898 195.396 205.66 193.181C204.688 191.657 204.203 189.787 204.204 187.571C204.23 184.519 204.901 181.507 206.172 178.732C207.443 175.957 209.286 173.482 211.58 171.469C214.974 168.351 219.025 166.792 223.734 166.792C231.629 166.792 235.577 170.879 235.577 179.052C235.577 180.438 235.301 182.689 234.747 185.805C234.194 188.921 232.463 192.799 229.553 197.439C226.67 202.056 222.932 206.08 218.54 209.295C214.109 212.54 209.33 214.163 204.204 214.163ZM239.318 120.88H238.486C230.726 120.88 225.879 119.01 223.943 115.27C222.678 112.983 222.032 110.404 222.072 107.79C222.085 105.891 222.365 104.002 222.901 102.18C223.814 97.7099 226.108 93.6394 229.46 90.5438C232.844 87.3586 237.791 85.7661 244.303 85.7661C250.537 85.9073 254.277 87.9851 255.523 91.9993C256.079 93.9596 256.36 95.9879 256.355 98.0256C256.341 100.622 255.992 103.205 255.316 105.712C254.424 109.576 252.564 113.15 249.913 116.1C247.283 119.009 243.751 120.602 239.318 120.88V120.88Z" fill="#FAFAFA"/>
</g>
<defs>
<clipPath id="clip0">
<rect width="300" height="300" fill="white"/>
</clipPath>
</defs>
</svg>
